
<!--<svg version="1.1" id="L3" xmlns="http://www.w3.org/2000/svg" xmlns:xlink="http://www.w3.org/1999/xlink" x="0px" y="0px"-->
<!--     viewBox="0 0 100 100" enable-background="new 0 0 0 0" xml:space="preserve">-->
<!--<circle fill="none" stroke="#8800B2" stroke-width="4" cx="50" cy="50" r="44" style="opacity:0.5;"/>-->
<!--    <circle fill="#fff" stroke="#fff" stroke-width="2" cx="8" cy="54" r="6" >-->
<!--    <animateTransform-->
<!--            attributeName="transform"-->
<!--            dur="2s"-->
<!--            type="rotate"-->
<!--            from="0 50 48"-->
<!--            to="360 50 52"-->
<!--            repeatCount="indefinite" />-->
<!--  </circle>-->
<!--</svg>-->

<svg version="1.1"
     class="svg-loader"
     xmlns="http://www.w3.org/2000/svg"
     xmlns:xlink="http://www.w3.org/1999/xlink"
     x="0px"
     y="0px"
     viewBox="0 0 80 80"
     xml:space="preserve">

	<path
            style="opacity:0.7;"
            id="spinner"
            fill="purple"
            d="M40,72C22.4,72,8,57.6,8,40C8,22.4,
        22.4,8,40,8c17.6,0,32,14.4,32,32c0,1.1-0.9,2-2,2
        s-2-0.9-2-2c0-15.4-12.6-28-28-28S12,24.6,12,40s12.6,
        28,28,28c1.1,0,2,0.9,2,2S41.1,72,40,72z">

		<animateTransform
                attributeType="xml"
                attributeName="transform"
                type="rotate"
                from="0 40 40"
                to="360 40 40"
                dur="0.9s"
                repeatCount="indefinite"
        />
	</path>
</svg>